<?xml version="1.0" encoding="UTF-8"?>
<svg xmlns="http://www.w3.org/2000/svg" version="1.1" width="400" height="500" viewBox="0 0 500 500"><rect x="0" y="0" width="500" height="500" fill="#ffffff"/><g transform="scale(23.81)"><g transform="translate(0,0)"><g><g transform="translate(3.5,3.5)"><path fill-rule="evenodd" d="M-3.5 -3.5L3.5 -3.5L3.5 3.5L-3.5 3.5ZM-2.5 -2.5L-2.5 2.5L2.5 2.5L2.5 -2.5Z" fill="#413b97"/><path fill-rule="evenodd" d="M-1.5 -1.5L1.5 -1.5L1.5 1.5L-1.5 1.5Z" fill="#413b97"/></g></g><g><g transform="translate(17.5,3.5)"><g transform="rotate(90)"><path fill-rule="evenodd" d="M-3.5 -3.5L3.5 -3.5L3.5 3.5L-3.5 3.5ZM-2.5 -2.5L-2.5 2.5L2.5 2.5L2.5 -2.5Z" fill="#413b97"/><path fill-rule="evenodd" d="M-1.5 -1.5L1.5 -1.5L1.5 1.5L-1.5 1.5Z" fill="#413b97"/></g></g></g><g><g transform="translate(3.5,17.5)"><g transform="rotate(-90)"><path fill-rule="evenodd" d="M-3.5 -3.5L3.5 -3.5L3.5 3.5L-3.5 3.5ZM-2.5 -2.5L-2.5 2.5L2.5 2.5L2.5 -2.5Z" fill="#413b97"/><path fill-rule="evenodd" d="M-1.5 -1.5L1.5 -1.5L1.5 1.5L-1.5 1.5Z" fill="#413b97"/></g></g></g><path fill-rule="evenodd" d="M8 0L8 1L9 1L9 2L8 2L8 5L9 5L9 2L11 2L11 3L12 3L12 4L11 4L11 5L10 5L10 7L11 7L11 5L12 5L12 8L13 8L13 9L14 9L14 8L13 8L13 5L12 5L12 4L13 4L13 2L11 2L11 1L12 1L12 0L11 0L11 1L10 1L10 0ZM8 6L8 7L9 7L9 6ZM0 8L0 9L1 9L1 11L0 11L0 13L1 13L1 12L2 12L2 13L3 13L3 12L4 12L4 13L5 13L5 12L6 12L6 13L8 13L8 14L9 14L9 15L10 15L10 16L11 16L11 17L12 17L12 20L13 20L13 21L14 21L14 20L16 20L16 21L17 21L17 18L18 18L18 17L17 17L17 18L14 18L14 16L13 16L13 17L12 17L12 16L11 16L11 15L13 15L13 14L11 14L11 13L10 13L10 12L12 12L12 13L13 13L13 12L14 12L14 10L13 10L13 11L12 11L12 10L11 10L11 11L10 11L10 10L9 10L9 11L7 11L7 10L6 10L6 9L7 9L7 8L6 8L6 9L4 9L4 8ZM8 8L8 9L9 9L9 8ZM10 8L10 9L11 9L11 8ZM16 8L16 9L17 9L17 10L18 10L18 11L17 11L17 12L18 12L18 13L19 13L19 12L20 12L20 10L21 10L21 8L20 8L20 9L19 9L19 8ZM3 9L3 10L2 10L2 12L3 12L3 10L4 10L4 9ZM15 10L15 13L14 13L14 15L15 15L15 13L16 13L16 10ZM4 11L4 12L5 12L5 11ZM6 11L6 12L7 12L7 11ZM18 11L18 12L19 12L19 11ZM8 12L8 13L9 13L9 14L10 14L10 13L9 13L9 12ZM20 13L20 14L21 14L21 13ZM16 14L16 16L19 16L19 14L18 14L18 15L17 15L17 14ZM20 15L20 16L21 16L21 15ZM8 17L8 21L9 21L9 20L10 20L10 17ZM13 19L13 20L14 20L14 19ZM18 19L18 20L20 20L20 19Z" fill="#413b97"/></g></g></svg>
